<?xml version="1.0" standalone="no"?><!DOCTYPE svg PUBLIC "-//W3C//DTD SVG 1.1//EN" "http://www.w3.org/Graphics/SVG/1.1/DTD/svg11.dtd"><svg t="1739078295182" class="icon" viewBox="0 0 1024 1024" version="1.1" xmlns="http://www.w3.org/2000/svg" p-id="1403" xmlns:xlink="http://www.w3.org/1999/xlink" width="200" height="200"><path d="M749.1072 939.6224H260.608a176.5376 176.5376 0 0 1-176.384-176.384V291.328A176.5888 176.5888 0 0 1 260.608 114.944h247.2448a25.6 25.6 0 0 1 0 51.2H260.608A125.3376 125.3376 0 0 0 135.424 291.328v471.9104a125.3376 125.3376 0 0 0 125.184 125.184h488.4992a125.3376 125.3376 0 0 0 125.184-125.184v-233.6768a25.6 25.6 0 0 1 51.2 0v233.6768a176.5376 176.5376 0 0 1-176.384 176.384z" fill="#434A54" p-id="1404"></path><path d="M899.8912 529.5616v233.6768a150.784 150.784 0 0 1-150.784 150.784H260.608a150.784 150.784 0 0 1-150.784-150.784V291.328A150.8352 150.8352 0 0 1 260.608 140.544h463.872A176.3328 176.3328 0 0 1 900.8128 317.44z" fill="#FFD16C" p-id="1405"></path><path d="M385.3824 133.5808s-165.632 21.8624-165.632 141.7216v501.3504c0 30.1568 2.6112 107.776 132.1472 119.8592-92.16 0-247.04-2.2528-247.04-123.648V302.4384c0-73.1136-14.6432-170.3424 280.5248-168.8576z" fill="#FFE8C0" p-id="1406"></path><path d="M619.2128 140.5952s166.3488 21.6576 166.3488 140.3904v496.64c0 29.9008-2.6624 106.8032-132.7104 118.784 92.16 0 248.064-2.2528 248.064-122.5216v-465.92c0.2048-72.448 13.7728-181.5552-281.7024-167.3728z" fill="#FFC50B" p-id="1407"></path><path d="M749.1072 939.6224H260.608a176.5376 176.5376 0 0 1-176.384-176.384V291.328A176.5888 176.5888 0 0 1 260.608 114.944h247.2448a25.6 25.6 0 0 1 0 51.2H260.608A125.3376 125.3376 0 0 0 135.424 291.328v471.9104a125.3376 125.3376 0 0 0 125.184 125.184h488.4992a125.3376 125.3376 0 0 0 125.184-125.184v-233.6768a25.6 25.6 0 0 1 51.2 0v233.6768a176.5376 176.5376 0 0 1-176.384 176.384z" fill="#434A54" p-id="1408"></path><path d="M526.2336 623.104l-112.0768 20.48a28.5184 28.5184 0 0 1-32.9216-34.304l24.064-107.52a28.8768 28.8768 0 0 1 7.68-13.9264l377.0368-377.0368a28.416 28.416 0 0 1 40.2944 0l87.552 87.552a28.416 28.416 0 0 1 0 40.2944l-376.5248 376.576a28.6208 28.6208 0 0 1-15.104 7.8848z" fill="#7BD3FF" p-id="1409"></path><path d="M832.6144 119.808a28.5696 28.5696 0 0 0-40.3456 0L415.232 496.64a28.7744 28.7744 0 0 0-7.6288 13.9264l-24.1152 107.52a27.8528 27.8528 0 0 0 1.6896 17.664l483.1232-480.3072z" fill="#AEECFF" p-id="1410"></path><path d="M408.9856 669.4912a54.1184 54.1184 0 0 1-52.736-65.9456l24.1152-107.52a53.6064 53.6064 0 0 1 14.5408-26.4192l376.9856-376.9344a54.2208 54.2208 0 0 1 76.8 0l87.552 87.552a54.2208 54.2208 0 0 1 0 76.544l-376.832 376.576a53.5552 53.5552 0 0 1-28.6208 14.9504l-112.0768 20.48a52.0704 52.0704 0 0 1-9.728 0.7168zM810.1888 128a2.9184 2.9184 0 0 0-2.0992 0.8192L431.104 505.9072a3.1232 3.1232 0 0 0-0.8192 1.4336l-24.064 107.52a2.7136 2.7136 0 0 0 0.7168 2.6624 2.6112 2.6112 0 0 0 2.6112 0.8192l112.128-20.48a2.9184 2.9184 0 0 0 1.536-0.768l376.576-376.576a2.9696 2.9696 0 0 0 0-4.1472l-87.552-87.552a2.9184 2.9184 0 0 0-2.048-0.8192z" fill="#434A54" p-id="1411"></path></svg>